<?xml version="1.0" encoding="utf-8"?>
<!-- Generator: Adobe Illustrator 25.4.1, SVG Export Plug-In . SVG Version: 6.00 Build 0)  -->
<svg version="1.1" id="Layer_1" xmlns="http://www.w3.org/2000/svg" xmlns:xlink="http://www.w3.org/1999/xlink" x="0px" y="0px"
	 width="2337.2px" height="615.3px" viewBox="0 0 2337.2 615.3" style="enable-background:new 0 0 2337.2 615.3;"
	 xml:space="preserve">
<style type="text/css">
	.st0{fill:#A62B1B;}
	.st1{fill:#A87F2F;}
	.st2{fill:#450F0D;}
	.st3{fill:#FFFFFF;}
</style>
<g>
	<g id="ec1V81.tif">
		<g>
			<path class="st0" d="M2110.9,132.8c0,0,0,101.9,0,145.4c31.7,0,59.7,0,89.9,0c0-48.4,0-96.5,0-145.4c33.1,0,64,0,96.9,0
				c0,121.4,0,244.1,0,367.3c-32.1,0-63.6,0-96.9,0c0-47.6,0-94,0-141.9c-30.4,0-58.6,0.2-89.9,0.2c0,46.5,0,93.5,0,141.8
				c-34.1,0-64-0.2-96.1-0.2c0-121.7,0-242.7,0-367.1"/>
			<path class="st0" d="M1622.3,420.6l-27.2,79.4h-6.1c-81.9,0-169.3,0-252.8,0c0-122.8,0-244.4,0-367.2c94.3,0,189.3,0,286,0
				l-27.6,78.9H1577c-46.8,0-93.6-0.1-142.2-0.1c0,22.7,0,43.1,0,66.6H1592c0,26.5-0.1,53.5-0.1,80.1h-157.1c0,22.6,0,40.5,0,62.4
				C1496.3,420.6,1557.1,420.6,1622.3,420.6z"/>
			<path class="st1" d="M955.8,132.8C925,253.7,891.4,384.2,862.6,500h-6.7c-14.9,0-84.2,0-84.2,0h-8.1l-88.8-341
				c-1.8-7.1-3.4-15.6-5.9-26.3h74.7h11.3h8.7c0,0,45,172.1,48.7,181.9l50.9-181.9h13c14.3,0,47.8,0,47.8,0H955.8z"/>
			<path class="st0" d="M1093.7,211.9l-92.7-0.3v-78.9c93.9,0,188,0,283.5,0v78.9h-93.1v288.2h-97.7V211.9z"/>
		</g>
	</g>
	<line class="st2" x1="2110.5" y1="132.8" x2="2014.8" y2="132.8"/>
	<path class="st0" d="M1932.1,500.1h-232.7c-13.8,0-25-11.2-25-25V157.8c0-13.8,11.2-25,25-25h261.7c-9,25.4-20.7,57.1-29,78.9
		h-12.5c-45.7,0-96.3-0.1-145.1-0.1v209.5h186.6C1961.1,421.1,1932.9,498.1,1932.1,500.1"/>
</g>
<g>
	<circle class="st3" cx="321.9" cy="307" r="287"/>
	<g>
		<g>
			<path class="st0" d="M321.9,118.5L126,457.8h391.8L321.9,118.5z M321.9,215.3l106.2,183.9H215.7L321.9,215.3z"/>
		</g>
		<g>
			<g>
				<polygon class="st1" points="409,266.7 512.4,167.8 430.5,304 				"/>
				<path class="st3" d="M506.1,175.7l-75.5,125.6l-19.9-34.4L506.1,175.7 M518.7,159.9L407.3,266.4l23.2,40.2L518.7,159.9
					L518.7,159.9z"/>
			</g>
			<g>
				<polygon class="st1" points="240.5,359.1 269.6,308.6 315.9,355.7 371,303 400.4,354 317,492.8 				"/>
				<path class="st3" d="M370.6,305.2l28.2,48.8l-61.6,102.4L317,490.1l-19.2-33.7L242,359.1l27.9-48.3l44.1,44.8l1.9,1.9l1.9-1.8
					L370.6,305.2 M371.3,300.9l-55.3,52.9l-46.6-47.3L238.9,359l56.5,98.8l21.5,37.6l22.7-37.6L402,354L371.3,300.9L371.3,300.9z"/>
			</g>
			<g>
				<polygon class="st1" points="131.3,168.3 232.4,270.8 211.1,307.7 				"/>
				<path class="st3" d="M137.7,176.6l93.1,94.5L211.2,305L137.7,176.6 M125.1,159.9l86,150.5l23-39.8L125.1,159.9L125.1,159.9z"/>
			</g>
		</g>
	</g>
</g>
</svg>
